<svg viewBox="0 0 244 45" class="hidden md:block md:my-10 md:mx-4 lg:ml-4 xl:ml-8 w-40 xs:w-44 sm:w-60 md:w-68 lg:w-76 xl:w-[350px] px-4" id="new logo"><g mask="url(#mask0_154_7211)" id="g3"><path d="M 64.4214,11.8123 C 63.8901,10.8242 63.2098,9.92056 62.3805,9.10626 60.1707,6.94142 57.2409,5.73983 54.028,5.73983 c -3.2129,0 -6.1824,1.20159 -8.3922,3.36643 C 44.727,10 43.9971,11.008 43.4508,12.1102 42.9046,11.008 42.1697,10 41.2559,9.10626 39.0462,6.94142 36.1163,5.73983 32.9035,5.73983 c -3.2129,0 -6.1825,1.20159 -8.3923,3.36643 C 23.6025,10 22.8676,11.0129 22.3213,12.1152 22.1078,11.6882 21.8645,11.2761 21.5913,10.8689 19.4213,7.66138 15.8111,5.73486 11.7541,5.73486 8.54119,5.73486 5.57164,6.93645 3.36185,9.1013 1.16697,11.2711 0,14.1162 0,17.3287 c 0,3.2125 1.12227,6.0129 3.37178,8.2224 2.28924,2.2841 5.01547,3.3268 8.39222,3.3268 4.6033,0 8.4816,-2.3039 10.5523,-6.3655 0.5463,1.1172 1.2862,2.1351 2.2049,3.0387 2.2098,2.1649 5.1793,3.3268 8.3922,3.3268 3.2129,0 6.1427,-1.1619 8.3525,-3.3268 0.9137,-0.8937 1.6437,-1.9066 2.1899,-3.0139 0.5462,1.1073 1.2762,2.1152 2.1899,3.0139 2.2098,2.1649 5.1794,3.3268 8.3922,3.3268 3.2129,0 6.1427,-1.1619 8.3525,-3.3268 2.2098,-2.1648 3.3718,-5.0148 3.3718,-8.2224 0,-1.8967 -0.3972,-3.6395 -1.167,-5.1936 L 64.4314,11.8123 Z M 54.028,22.7805 c -2.8106,0 -5.1396,-2.4081 -5.1396,-5.4518 0,-3.0437 2.329,-5.4518 5.1396,-5.4518 2.8107,0 5.0999,2.3634 5.0999,5.4518 0,3.0884 -2.2892,5.4518 -5.0999,5.4518 z M 37.1641,20.3376 c -0.9137,1.4797 -2.4779,2.4429 -4.2557,2.4429 -2.8106,0 -5.1396,-2.4081 -5.1396,-5.4518 0,-3.0437 2.329,-5.4518 5.1396,-5.4518 1.7927,0 3.347,0.9384 4.2557,2.4031 h 5.4823 c -0.2483,0.9732 -0.3824,1.9911 -0.3824,3.0537 0,1.0625 0.1241,2.0556 0.3675,3.0139 h -5.4723 z m -22.1078,1.4797 c -1.0031,0.8391 -2.0459,1.2413 -3.2923,1.2413 -2.36869,0 -4.21597,-1.3257 -4.73738,-3.2473 H 21.3977 c 0.144,0.6952 0.3426,1.3655 0.6058,2.006 z M 11.764,11.3903 c 2.4134,0 4.1266,1.2065 4.8417,3.4012 H 6.97696 C 7.76653,12.6266 9.54429,11.3903 11.764,11.3903 Z" fill="white" id="path2"></path><path d="m 192.777,10.8193 h 18.25 C 209.522,8.70415 206.965,6.51448 203.022,6.51448 H 201.8 c -3.699,0 -6.748,1.58391 -9.023,4.30482 z m 15.812,7.6366 v 9.995 h 4.836 v -9.995 c 0,-3.858 -1.057,-5.6505 -2.398,-7.6415 -1.381,1.991 -2.438,3.7388 -2.438,7.6415 z m -20.728,2.3585 v 7.6415 h 4.916 V 10.8193 c -3.535,2.4777 -4.916,5.7697 -4.916,9.9951 z m 41.043,-3.575 v 11.2165 h 4.876 v -11.579 c 0,-6.137 -4.186,-10.36242 -10.324,-10.36242 h -3.903 c -4.226,0 -7.031,2.19464 -8.536,4.30482 h 11.461 c 3.858,0 6.421,2.6018 6.421,6.4201 M 184.609,14.151 V 6.50951 h -4.916 V 24.1461 c 3.535,-2.4777 4.916,-5.7697 4.916,-9.9951 z m -23.086,3.575 V 6.50951 h -4.877 V 18.0885 c 0,6.137 4.186,10.3624 10.324,10.3624 h 3.576 c 3.858,0 6.867,-1.5839 9.142,-4.3048 h -11.705 c -3.818,0 -6.46,-2.6018 -6.46,-6.4201 z m -34.905,-6.9067 h 17.554 V 6.51448 H 135.8 c -3.859,0 -6.908,1.58391 -9.182,4.30482 z m 0,0 c -3.536,2.4777 -4.916,5.7697 -4.916,9.9951 v 7.6415 h 4.916 z M 89.0219,10.6158 H 93.938 V 0.0100098 h -4.9161 z m 0,9.4687 v 8.3714 h 18.3291 c 6.381,0 10.974,-4.5531 10.974,-10.6058 v -0.7299 c 0,-6.0526 -4.593,-10.60572 -10.974,-10.60572 h -4.311 c -3.8184,0 -6.8276,1.42006 -9.102,4.10622 h 13.005 c 3.904,0 6.501,2.5621 6.501,6.4598 v 0.8143 c 0,3.9027 -2.602,6.4598 -6.501,6.4598 H 93.938 V 10.6207 c -3.5356,2.5174 -4.9161,5.2831 -4.9161,9.4688 m -19.2177,8.3664 h 4.9161 V 0.0100098 h -4.9161 z" fill="white" id="path3"></path></g><path d="M 84.3493,6.50952 H 79.4331 V 28.4509 h 4.9162 z" fill="white" id="path4"></path><path d="m 152.053,6.50952 h -4.916 V 28.4509 h 4.916 z" fill="white" id="path5"></path><path d="m 84.4265,0 h -4.9206 v 4.52252 h 4.9206 z" fill="white" id="path6"></path><path d="m 152.193,0 h -4.921 v 4.52252 h 4.921 z" fill="white" id="path7"></path><path d="m 69.8096,34.166 h 2.8851 c 1.4947,0 2.5773,0.9732 2.5773,2.5174 0,1.5442 -1.0826,2.5521 -2.5773,2.5521 h -2.0658 v 3.2771 H 69.8096 V 34.171 Z m 2.7759,4.3347 c 1.1173,0 1.8373,-0.6753 1.8373,-1.8173 0,-1.142 -0.725,-1.7776 -1.8274,-1.7776 H 70.624 v 3.5949 h 1.9565 z" fill="white" id="path8"></path><path d="m 79.1504,36.4001 c 1.743,0 3.1583,1.3307 3.1583,3.0984 0,1.7676 -1.4103,3.1579 -3.1583,3.1579 -1.7479,0 -3.1582,-1.3506 -3.1582,-3.1579 0,-1.8074 1.4103,-3.0984 3.1582,-3.0984 z m 0,5.5264 c 1.2812,0 2.324,-1.0427 2.324,-2.433 0,-1.3903 -1.0428,-2.3635 -2.324,-2.3635 -1.2811,0 -2.324,1.008 -2.324,2.3635 0,1.3555 1.0429,2.433 2.324,2.433 z" fill="white" id="path9"></path><path d="m 82.8052,36.5393 h 0.8541 l 1.45,4.4489 c 0.0944,0.283 0.1788,0.6405 0.1788,0.6405 h 0.0248 c 0,0 0.0844,-0.3575 0.1788,-0.6405 l 1.4699,-4.4241 h 0.7945 l 1.4699,4.4241 c 0.0943,0.283 0.1787,0.6405 0.1787,0.6405 h 0.0249 c 0,0 0.0844,-0.3426 0.1787,-0.6405 l 1.45,-4.4489 h 0.8542 l -2.0161,5.9682 h -0.879 l -1.4599,-4.2502 c -0.1043,-0.2979 -0.1887,-0.6405 -0.1887,-0.6405 h -0.0249 c 0,0 -0.0844,0.3426 -0.1787,0.6405 l -1.46,4.2502 h -0.8789 l -2.0162,-5.9682 z" fill="white" id="path10"></path><path d="m 95.3685,36.4001 c 1.6486,0 2.4928,1.2711 2.4928,2.7508 0,0.144 -0.0248,0.4171 -0.0248,0.4171 H 93.258 c 0.0348,1.5293 1.0776,2.3634 2.3141,2.3634 1.0924,0 1.8174,-0.7249 1.8174,-0.7249 l 0.3675,0.6157 c 0,0 -0.864,0.8292 -2.2098,0.8292 -1.7777,0 -3.1185,-1.281 -3.1185,-3.1182 0,-1.9563 1.3308,-3.1331 2.9447,-3.1331 z m 1.6734,2.5025 c -0.0496,-1.2462 -0.8044,-1.8272 -1.6983,-1.8272 -0.9981,0 -1.8621,0.6306 -2.0508,1.8272 z" fill="white" id="path11"></path><path d="m 99.1675,36.5392 h 0.7945 v 1.0576 c 0,0.2632 -0.0248,0.4767 -0.0248,0.4767 h 0.0248 c 0.283,-0.9037 0.948,-1.5889 1.887,-1.5889 0.164,0 0.323,0.0348 0.323,0.0348 v 0.7944 c 0,0 -0.144,-0.0248 -0.298,-0.0248 -0.844,0 -1.47,0.6653 -1.733,1.5442 -0.119,0.3773 -0.1641,0.7845 -0.1641,1.1618 v 2.5174 h -0.8094 v -5.9682 z" fill="white" id="path12"></path><path d="m 105.608,36.4001 c 1.649,0 2.493,1.2711 2.493,2.7508 0,0.144 -0.025,0.4171 -0.025,0.4171 h -4.578 c 0.035,1.5293 1.077,2.3634 2.314,2.3634 1.092,0 1.817,-0.7249 1.817,-0.7249 l 0.368,0.6157 c 0,0 -0.864,0.8292 -2.21,0.8292 -1.778,0 -3.119,-1.281 -3.119,-3.1182 0,-1.9563 1.331,-3.1331 2.945,-3.1331 z m 1.674,2.5025 c -0.05,-1.2462 -0.805,-1.8272 -1.699,-1.8272 -0.998,0 -1.862,0.6306 -2.05,1.8272 z" fill="white" id="path13"></path><path d="m 111.934,36.4003 c 1.45,0 1.947,1.1271 1.947,1.1271 h 0.025 c 0,0 -0.025,-0.2036 -0.025,-0.4518 v -2.9047 h 0.805 v 8.3416 h -0.785 v -0.6306 c 0,-0.2631 0.025,-0.427 0.025,-0.427 h -0.025 c 0,0 -0.487,1.1966 -2.051,1.1966 -1.564,0 -2.597,-1.281 -2.597,-3.133 0,-1.8521 1.117,-3.1182 2.681,-3.1182 z m 0.035,5.5263 c 0.998,0 1.937,-0.71 1.937,-2.4081 0,-1.2116 -0.616,-2.3982 -1.897,-2.3982 -1.058,0 -1.922,0.8887 -1.922,2.3982 0,1.5094 0.77,2.4081 1.887,2.4081 z" fill="white" id="path14"></path><path d="m 119.11,34.166 h 0.81 v 2.8948 c 0,0.273 -0.025,0.4865 -0.025,0.4865 h 0.025 c 0,0 0.496,-1.1519 2.031,-1.1519 1.534,0 2.597,1.281 2.597,3.1331 0,1.852 -1.127,3.1182 -2.692,3.1182 -1.425,0 -1.956,-1.1619 -1.956,-1.1619 h -0.025 c 0,0 0.025,0.2036 0.025,0.4866 v 0.5362 h -0.785 V 34.166 Z m 2.682,7.7756 c 1.058,0 1.922,-0.8888 1.922,-2.4082 0,-1.5193 -0.77,-2.3982 -1.887,-2.3982 -0.998,0 -1.937,0.7101 -1.937,2.4082 0,1.1966 0.616,2.3982 1.897,2.3982 z" fill="white" id="path15"></path><path d="m 125.283,44.0022 c 0,0 0.332,0.273 0.71,0.273 0.521,0 0.889,-0.427 1.127,-0.9732 l 0.367,-0.844 -2.492,-5.9236 h 0.888 l 1.758,4.3545 c 0.12,0.298 0.214,0.6306 0.214,0.6306 h 0.025 c 0,0 0.084,-0.3326 0.203,-0.6306 l 1.718,-4.3545 h 0.879 l -2.944,7.2145 c -0.308,0.7597 -0.924,1.2463 -1.723,1.2463 -0.616,0 -1.043,-0.3575 -1.043,-0.3575 l 0.308,-0.6405 z" fill="white" id="path16"></path><path d="m 134.599,34.0863 h 5.045 v 1.3158 h -3.511 v 2.2046 h 2.836 v 1.3158 h -2.836 v 2.2641 h 3.705 v 1.3158 h -5.234 v -8.426 z" fill="white" id="path17"></path><path d="m 143.795,36.3159 c 1.579,0 2.324,0.9037 2.324,0.9037 l -0.665,1.0328 c 0,0 -0.631,-0.6505 -1.579,-0.6505 -1.118,0 -1.838,0.8441 -1.838,1.8769 0,1.0327 0.735,1.8967 1.887,1.8967 1.018,0 1.778,-0.7696 1.778,-0.7696 l 0.581,1.0675 c 0,0 -0.869,0.9831 -2.493,0.9831 -2.006,0 -3.287,-1.4101 -3.287,-3.1678 0,-1.7577 1.281,-3.1678 3.287,-3.1678 z" fill="white" id="path18"></path><path d="m 150.047,36.3159 c 1.852,0 3.337,1.3158 3.337,3.1678 0,1.8521 -1.485,3.1679 -3.322,3.1679 -1.837,0 -3.332,-1.3059 -3.332,-3.1679 0,-1.8619 1.485,-3.1678 3.322,-3.1678 z m 0.01,5.0546 c 0.973,0 1.793,-0.7596 1.793,-1.8868 0,-1.1271 -0.82,-1.8867 -1.793,-1.8867 -0.973,0 -1.803,0.7696 -1.803,1.8867 0,1.1172 0.82,1.8868 1.803,1.8868 z" fill="white" id="path19"></path><path d="m 154.616,37.7507 h -0.785 v -1.1966 h 0.819 v -1.7428 h 1.47 v 1.7428 h 1.376 v 1.1966 h -1.376 v 2.3486 c 0,0.998 0.785,1.137 1.197,1.137 0.164,0 0.273,-0.0248 0.273,-0.0248 v 1.3158 c 0,0 -0.179,0.0347 -0.462,0.0347 -0.844,0 -2.517,-0.2482 -2.517,-2.279 v -2.5373 z" fill="white" id="path20"></path><path d="m 158.588,36.4548 h 1.45 v 1.0427 c 0,0.2234 -0.024,0.427 -0.024,0.427 h 0.024 c 0.274,-0.864 0.999,-1.5541 1.922,-1.5541 0.144,0 0.273,0.0248 0.273,0.0248 v 1.4846 c 0,0 -0.154,-0.0248 -0.357,-0.0248 -0.641,0 -1.366,0.3674 -1.649,1.2711 -0.094,0.2979 -0.129,0.6306 -0.129,0.9831 v 2.3982 h -1.51 z" fill="white" id="path21"></path><path d="m 163.013,34.0864 h 1.494 v 1.3406 h -1.494 z m 0,2.3684 h 1.509 v 6.0527 h -1.509 z" fill="white" id="path22"></path><path d="m 168.793,36.3159 c 1.579,0 2.324,0.9037 2.324,0.9037 l -0.666,1.0328 c 0,0 -0.63,-0.6505 -1.579,-0.6505 -1.117,0 -1.837,0.8441 -1.837,1.8769 0,1.0327 0.735,1.8967 1.887,1.8967 1.018,0 1.778,-0.7696 1.778,-0.7696 l 0.581,1.0675 c 0,0 -0.869,0.9831 -2.493,0.9831 -2.006,0 -3.288,-1.4101 -3.288,-3.1678 0,-1.7577 1.282,-3.1678 3.288,-3.1678 z" fill="white" id="path23"></path><path d="m 172.175,34.0864 h 1.495 v 1.3406 h -1.495 z m 0,2.3684 h 1.509 v 6.0527 h -1.509 z" fill="white" id="path24"></path><path d="m 175.368,37.7507 h -0.785 v -1.1966 h 0.819 v -1.7428 h 1.47 v 1.7428 h 1.376 v 1.1966 h -1.376 v 2.3486 c 0,0.998 0.785,1.137 1.197,1.137 0.164,0 0.273,-0.0248 0.273,-0.0248 v 1.3158 c 0,0 -0.179,0.0347 -0.462,0.0347 -0.844,0 -2.517,-0.2482 -2.517,-2.279 v -2.5373 z" fill="white" id="path25"></path><path d="m 179.022,43.4807 c 0,0 0.333,0.2483 0.676,0.2483 0.417,0 0.819,-0.2483 1.043,-0.7845 l 0.223,-0.5363 -2.552,-5.9582 h 1.698 l 1.271,3.4905 c 0.119,0.3228 0.224,0.8193 0.224,0.8193 h 0.024 c 0,0 0.095,-0.4767 0.204,-0.7945 l 1.187,-3.5104 h 1.649 l -2.707,6.9662 c -0.427,1.1023 -1.271,1.579 -2.185,1.579 -0.725,0 -1.256,-0.3923 -1.256,-0.3923 l 0.496,-1.1271 z" fill="white" id="path26"></path><path d="m 188.363,40.3476 c 0,0 0.914,0.8888 2.101,0.8888 0.641,0 1.222,-0.3327 1.222,-1.0228 0,-1.5045 -3.978,-1.2463 -3.978,-3.8332 0,-1.4002 1.212,-2.4429 2.826,-2.4429 1.613,0 2.517,0.9037 2.517,0.9037 l -0.665,1.2463 c 0,0 -0.805,-0.7349 -1.862,-0.7349 -0.711,0 -1.272,0.4171 -1.272,1.0079 0,1.4946 3.963,1.1271 3.963,3.8183 0,1.3406 -1.023,2.4677 -2.776,2.4677 -1.877,0 -2.905,-1.1519 -2.905,-1.1519 l 0.829,-1.1519 z" fill="white" id="path27"></path><path d="m 194.272,36.4549 h 1.45 v 0.7001 c 0,0.2235 -0.024,0.4171 -0.024,0.4171 h 0.024 c 0.298,-0.5908 1.023,-1.2562 1.972,-1.2562 0.948,0 1.519,0.427 1.768,1.2463 h 0.025 c 0.332,-0.6505 1.117,-1.2463 2.065,-1.2463 1.257,0 1.982,0.71 1.982,2.3039 v 3.8927 h -1.505 v -3.6097 c 0,-0.6902 -0.129,-1.2115 -0.829,-1.2115 -0.77,0 -1.281,0.6157 -1.46,1.3754 -0.06,0.2383 -0.07,0.4965 -0.07,0.7845 v 2.6564 h -1.504 v -3.6098 c 0,-0.6504 -0.11,-1.2115 -0.82,-1.2115 -0.784,0 -1.291,0.6157 -1.484,1.3903 -0.06,0.2234 -0.07,0.4965 -0.07,0.7696 v 2.6564 h -1.51 V 36.45 Z" fill="white" id="path28"></path><path d="m 207.939,38.7141 h 0.203 v -0.0844 c 0,-0.7944 -0.496,-1.0675 -1.162,-1.0675 -0.864,0 -1.663,0.5809 -1.663,0.5809 l -0.571,-1.0774 c 0,0 0.938,-0.7498 2.373,-0.7498 1.589,0 2.518,0.8789 2.518,2.4082 v 3.7835 h -1.39 v -0.4965 c 0,-0.2384 0.024,-0.4271 0.024,-0.4271 h -0.024 c 0,0 -0.462,1.0676 -1.838,1.0676 -1.082,0 -2.051,-0.6753 -2.051,-1.8868 0,-1.9216 2.598,-2.0507 3.586,-2.0507 z m -1.147,2.7607 c 0.794,0 1.365,-0.854 1.365,-1.5889 v -0.144 h -0.263 c -0.77,0 -2.016,0.1093 -2.016,0.9484 0,0.4022 0.298,0.7845 0.914,0.7845 z" fill="white" id="path29"></path><path d="m 210.968,36.4548 h 1.45 v 1.0427 c 0,0.2234 -0.025,0.427 -0.025,0.427 h 0.025 c 0.273,-0.864 0.998,-1.5541 1.922,-1.5541 0.144,0 0.273,0.0248 0.273,0.0248 v 1.4846 c 0,0 -0.154,-0.0248 -0.358,-0.0248 -0.64,0 -1.365,0.3674 -1.649,1.2711 -0.094,0.2979 -0.129,0.6306 -0.129,0.9831 v 2.3982 h -1.509 z" fill="white" id="path30"></path><path d="m 215.65,37.7507 h -0.784 v -1.1966 h 0.819 v -1.7428 h 1.47 v 1.7428 h 1.375 v 1.1966 h -1.375 v 2.3486 c 0,0.998 0.785,1.137 1.197,1.137 0.164,0 0.273,-0.0248 0.273,-0.0248 v 1.3158 c 0,0 -0.179,0.0347 -0.462,0.0347 -0.844,0 -2.518,-0.2482 -2.518,-2.279 v -2.5373 z" fill="white" id="path31"></path><path d="m 226.287,33.9424 c 2.066,0 3.133,1.0675 3.133,1.0675 l -0.759,1.1371 c 0,0 -0.904,-0.8044 -2.245,-0.8044 -1.887,0 -2.895,1.3058 -2.895,2.8947 0,1.8272 1.246,3.0139 2.826,3.0139 1.271,0 2.11,-0.8788 2.11,-0.8788 v -0.9831 h -1.291 v -1.3158 h 2.672 v 4.4389 h -1.306 v -0.4022 c 0,-0.1787 0.009,-0.3575 0.009,-0.3575 h -0.024 c 0,0 -0.879,0.9037 -2.444,0.9037 -2.219,0 -4.131,-1.723 -4.131,-4.3645 0,-2.4429 1.837,-4.3446 4.345,-4.3446 z" fill="white" id="path32"></path><path d="m 231.054,36.4548 h 1.45 v 1.0427 c 0,0.2234 -0.025,0.427 -0.025,0.427 h 0.025 c 0.273,-0.864 0.998,-1.5541 1.922,-1.5541 0.144,0 0.273,0.0248 0.273,0.0248 v 1.4846 c 0,0 -0.154,-0.0248 -0.357,-0.0248 -0.641,0 -1.366,0.3674 -1.649,1.2711 -0.094,0.2979 -0.129,0.6306 -0.129,0.9831 v 2.3982 h -1.51 z" fill="white" id="path33"></path><path d="m 235.479,34.0864 h 1.495 v 1.3406 h -1.495 z m 0,2.3684 h 1.51 v 6.0527 h -1.51 z" fill="white" id="path34"></path><path d="m 240.738,36.3158 c 1.33,0 1.743,0.7696 1.743,0.7696 h 0.024 c 0,0 -0.009,-0.1539 -0.009,-0.3426 v -2.6564 h 1.509 v 8.426 h -1.425 v -0.4965 c 0,-0.2234 0.025,-0.3922 0.025,-0.3922 h -0.025 c 0,0 -0.512,1.0327 -1.897,1.0327 -1.639,0 -2.682,-1.2909 -2.682,-3.1678 0,-1.8769 1.138,-3.1678 2.742,-3.1678 z m 0.283,5.0646 c 0.784,0 1.519,-0.571 1.519,-1.9117 0,-0.9384 -0.496,-1.8619 -1.509,-1.8619 -0.83,0 -1.52,0.6753 -1.52,1.8768 0,1.2016 0.616,1.8968 1.51,1.8968 z" fill="white" id="path35"></path></svg>